# xmcd
#
# Track frame offsets:
#	150
#	14941
#	29305
#	42771
#	55535
#	68046
#	82168
#	95134
#	108159
#	123780
#	141078
#	154343
#	168129
#	182163
#	196420
#	211367
#	224953
#	237375
#	252377
#	267093
#	279369
#	291137
#	304204
#	319078
#	332494
#
# Disc length: 4605 seconds
#
# Revision: 1
# Processed by: cddbd v1.5.2PL0 Copyright (c) Steve Scherf et al.
# Submitted via: audiograbber 1.83.01
#
DISCID=7911fb19
DTITLE=George Jones - Radio Lover 1980-1989: A Critical Anthology
DYEAR=2010
DGENRE=Country
TTITLE0=He Stopped Loving Her Today
TTITLE1=If Drinkin' Don't Kill Me (Her Memory Will)
TTITLE2=I'm Not Ready Yet
TTITLE3=Still Doin' Time
TTITLE4=Good Ones And Bad Ones
TTITLE5=She Hung The Moon
TTITLE6=I'd Rather Have What We Had
TTITLE7=Ol' George Stopped Drinkin' Today
TTITLE8=Radio Lover
TTITLE9=Wino The Clown
TTITLE10=You Must Have Walked Across My Mind Again
TTITLE11=From Strangers, To Lovers, To Friends
TTITLE12=You've Still Got A Place In My Heart
TTITLE13=(What Love Can Do) The Second Time Around
TTITLE14=Somebody Wants Me Out Of The Way
TTITLE15=If Only You'd Love Me Again
TTITLE16=Don't Leave Without Taking Your Silver
TTITLE17=Wine Colored Roses
TTITLE18=The Right Left Hand
TTITLE19=Hopelessly Yours
TTITLE20=You Never Looked That Good When You Were Mine
TTITLE21=I'm A Long Gone Daddy
TTITLE22=Moments Of Brilliance
TTITLE23=Just Out Of Reach
TTITLE24=Writing On The Wall
EXTD=
EXTT0=
EXTT1=
EXTT2=
EXTT3=
EXTT4=
EXTT5=
EXTT6=
EXTT7=
EXTT8=
EXTT9=
EXTT10=
EXTT11=
EXTT12=
EXTT13=
EXTT14=
EXTT15=
EXTT16=
EXTT17=
EXTT18=
EXTT19=
EXTT20=
EXTT21=
EXTT22=
EXTT23=
EXTT24=
PLAYORDER=
